# xmcd
#
# Track frame offsets:
#	150
#	18711
#	37355
#	41073
#	64330
#	79029
#	93906
#	116537
#	130728
#	144030
#	160310
#	180268
#	189257
#
# Disc length: 2706 seconds
#
# Revision: 0
# Processed by: cddbd v1.4PL0 Copyright (c) Steve Scherf et al.
# Submitted via: audiograbber 1.82.00
#
DISCID=a80a900d
DTITLE=Kunz Andre - Acoustic Tales
DYEAR=2003
DGENRE=Blues
TTITLE0=Thousend Eyes
TTITLE1=Rain
TTITLE2=One Moment In Time
TTITLE3=Nathalie
TTITLE4=Still Beautyful
TTITLE5=Italien Crisis
TTITLE6=Milano
TTITLE7=Almost There
TTITLE8=Once And Forever
TTITLE9=Tasmanien
TTITLE10=Perfect Match
TTITLE11=Eiras Atlas
TTITLE12=Nobody Sayd It's Gone Be Easy
EXTD=
EXTT0=
EXTT1=
EXTT2=
EXTT3=
EXTT4=
EXTT5=
EXTT6=
EXTT7=
EXTT8=
EXTT9=
EXTT10=
EXTT11=
EXTT12=
PLAYORDER=
